<?xml version="1.0" encoding="UTF-8" standalone="no"?>
<!DOCTYPE svg PUBLIC "-//W3C//DTD SVG 1.1//EN" "http://www.w3.org/Graphics/SVG/1.1/DTD/svg11.dtd">
<svg width="100%" height="100%" viewBox="0 0 1920 1080" version="1.1" xmlns="http://www.w3.org/2000/svg" xmlns:xlink="http://www.w3.org/1999/xlink" xml:space="preserve" xmlns:serif="http://www.serif.com/" style="fill-rule:evenodd;clip-rule:evenodd;stroke-linecap:round;stroke-linejoin:round;stroke-miterlimit:1.5;">
    <g transform="matrix(1.31455,-0.164137,0.164137,1.31455,-420.325,134.706)">
        <path d="M788,304C795.612,246.185 862.028,213.528 898,193C934.119,172.388 1068.61,221.03 1111,234C1154.31,247.253 1209.91,339.535 1206,361C1201.77,384.228 1285.08,436.154 1286,496.743C1287.01,563.41 1147.94,545.186 1094,583C941.895,689.627 928.742,546.415 876.471,492.209C823.321,437.09 780.167,363.5 788,304Z" style="fill:rgb(248,236,213);stroke:rgb(248,236,213);stroke-width:0.75px;"/>
    </g>
    <g transform="matrix(0.849056,0.956485,-1.08392,0.962182,555.746,-463.399)">
        <path d="M351,363C303.363,428.219 336.859,555.203 376,593C416.737,632.337 416.298,735.895 473.361,732.482C609.749,724.323 609.343,646.711 650.642,626.243C682.828,610.292 742.167,619.333 763,583C783.833,546.667 786.133,426.477 769,377C751.167,325.5 670.5,276.333 634,269C597.5,261.667 560.167,324.333 513,340C465.833,355.667 376.358,328.283 351,363Z" style="fill:rgb(215,233,242);stroke:rgb(215,233,242);stroke-width:0.73px;"/>
    </g>
    <g transform="matrix(1.4263,0.623765,-0.623765,1.4263,-505.142,-1127.19)">
        <path d="M1535.41,292.751C1570.24,257.128 1662.83,231.362 1717,247C1771.17,262.638 1768.38,416.581 1770,432.83C1774.97,482.723 1705.17,581.161 1643,616.827C1580.83,652.494 1445.07,639.268 1419,616.827C1341.24,549.882 1397.18,495.604 1448.27,426.259C1479.07,384.454 1500.57,328.375 1535.41,292.751Z" style="fill:rgb(228,228,243);stroke:rgb(228,228,243);stroke-width:0.64px;"/>
    </g>
</svg>
