<?xml version="1.0" encoding="UTF-8" standalone="no"?>
<!DOCTYPE svg PUBLIC "-//W3C//DTD SVG 1.1//EN" "http://www.w3.org/Graphics/SVG/1.1/DTD/svg11.dtd">
<svg width="100%" height="100%" viewBox="0 0 1920 1080" version="1.1" xmlns="http://www.w3.org/2000/svg" xmlns:xlink="http://www.w3.org/1999/xlink" xml:space="preserve" xmlns:serif="http://www.serif.com/" style="fill-rule:evenodd;clip-rule:evenodd;stroke-linecap:round;stroke-linejoin:round;stroke-miterlimit:1.5;">
    <g transform="matrix(1,0,0,1,0,-58)">
        <path d="M0,421C0,421 379,568.833 539,578C683.157,586.259 815.614,474.513 960,476C1105.67,477.5 1257.64,592.826 1413,587C1573,581 1920,440 1920,440L1920,1080L0,1080L0,421Z" style="fill:rgb(214,215,236);stroke:rgb(214,215,236);stroke-width:1px;"/>
    </g>
    <path d="M0,421C0,421 379,568.833 539,578C683.157,586.259 815.614,474.513 960,476C1105.67,477.5 1257.64,592.826 1413,587C1573,581 1920,440 1920,440L1920,1080L0,1080L0,421Z" style="fill:rgb(147,149,206);stroke:rgb(147,149,206);stroke-width:1px;"/>
</svg>
