<?xml version="1.0" encoding="UTF-8" standalone="no"?><!DOCTYPE svg PUBLIC "-//W3C//DTD SVG 1.1//EN" "http://www.w3.org/Graphics/SVG/1.1/DTD/svg11.dtd"><svg width="100%" height="100%" viewBox="0 0 53 26" version="1.1" xmlns="http://www.w3.org/2000/svg" xmlns:xlink="http://www.w3.org/1999/xlink" xml:space="preserve" xmlns:serif="http://www.serif.com/" style="fill-rule:evenodd;clip-rule:evenodd;stroke-linejoin:round;stroke-miterlimit:2;"><g id="PayConvertLogoSite"><path d="M16.815,24.992l2.087,-0l0.22,-11.194c2.345,0.267 9.638,-0.992 9.586,-6.779c-0.081,-8.992 -10.244,-6.768 -11.304,-6.307c-1.003,0.436 -2.854,1.565 -2.854,2.136c-0,0.57 2.265,0.782 2.265,0.782l-0,21.362Zm2.307,-22.06l-0,8.251c-0.363,-0.213 7.478,0.994 7.059,-4.799c-0.368,-5.077 -7.49,-3.653 -7.059,-3.452Z" style="fill:#7357a1;"/><path d="M16.815,13.464l-0,-2.554c-0,0 -8.741,-0.214 -9.095,6.929c-0.315,6.371 7.893,5.732 9.095,5.649c1.388,-0.095 5.942,-0.084 5.942,-0.084c0,0 -1.895,-0.799 -2.273,-0.963c-0.696,-0.301 -2.278,-0.869 -3.669,-0.842c-0.959,0.019 -6.534,0.699 -6.631,-3.76c-0.118,-5.383 6.631,-4.375 6.631,-4.375Z" style="fill:#ae9bce;"/><g><path d="M21.014,20.933c0,-0.242 0.042,-0.489 0.127,-0.74c0.084,-0.251 0.211,-0.472 0.382,-0.663c0.172,-0.191 0.387,-0.343 0.646,-0.456c0.259,-0.113 0.564,-0.17 0.913,-0.17c0.35,0 0.655,0.057 0.914,0.17c0.259,0.113 0.475,0.265 0.647,0.456c0.173,0.191 0.301,0.412 0.385,0.663c0.084,0.251 0.126,0.498 0.126,0.74c0,0.239 -0.042,0.484 -0.126,0.732c-0.084,0.249 -0.212,0.469 -0.385,0.659c-0.172,0.191 -0.388,0.343 -0.647,0.456c-0.259,0.113 -0.564,0.17 -0.914,0.17c-0.349,-0 -0.654,-0.057 -0.913,-0.17c-0.259,-0.113 -0.474,-0.265 -0.646,-0.456c-0.171,-0.19 -0.298,-0.41 -0.382,-0.659c-0.085,-0.248 -0.127,-0.493 -0.127,-0.732Zm0.975,0c0,0.155 0.021,0.32 0.061,0.495c0.041,0.175 0.106,0.331 0.194,0.466c0.088,0.136 0.201,0.244 0.339,0.326c0.138,0.081 0.305,0.122 0.499,0.122c0.195,0 0.362,-0.041 0.5,-0.122c0.138,-0.082 0.251,-0.19 0.339,-0.326c0.088,-0.135 0.153,-0.291 0.194,-0.466c0.04,-0.175 0.061,-0.34 0.061,-0.495c-0,-0.155 -0.021,-0.32 -0.061,-0.495c-0.041,-0.175 -0.106,-0.331 -0.194,-0.468c-0.088,-0.137 -0.201,-0.246 -0.339,-0.328c-0.138,-0.081 -0.305,-0.122 -0.5,-0.122c-0.194,0 -0.361,0.041 -0.499,0.122c-0.138,0.082 -0.251,0.191 -0.339,0.328c-0.088,0.137 -0.153,0.293 -0.194,0.468c-0.04,0.175 -0.061,0.34 -0.061,0.495Z" style="fill-rule:nonzero;"/><path d="M26.007,19.386c-0,-0.071 0.013,-0.134 0.039,-0.19c0.027,-0.055 0.062,-0.1 0.105,-0.136c0.043,-0.035 0.093,-0.062 0.15,-0.081c0.057,-0.018 0.114,-0.027 0.172,-0.027c0.058,-0 0.113,0.008 0.167,0.025c0.054,0.018 0.103,0.044 0.146,0.079c0.044,0.036 0.079,0.079 0.105,0.131c0.026,0.051 0.041,0.112 0.043,0.183l0,0.308c0.048,-0.097 0.117,-0.197 0.208,-0.3c0.09,-0.103 0.195,-0.189 0.313,-0.258c0.119,-0.07 0.246,-0.123 0.383,-0.16c0.137,-0.037 0.277,-0.056 0.419,-0.056c0.184,0 0.359,0.029 0.526,0.087c0.168,0.058 0.315,0.148 0.443,0.271c0.127,0.122 0.228,0.278 0.303,0.469c0.075,0.191 0.113,0.418 0.113,0.681l-0,2.044c-0,0.074 -0.013,0.139 -0.04,0.194c-0.026,0.055 -0.061,0.102 -0.104,0.14c-0.044,0.038 -0.094,0.066 -0.15,0.085c-0.057,0.018 -0.114,0.027 -0.172,0.027c-0.058,0 -0.114,-0.009 -0.168,-0.027c-0.053,-0.019 -0.102,-0.047 -0.146,-0.085c-0.043,-0.038 -0.078,-0.085 -0.104,-0.14c-0.026,-0.055 -0.04,-0.12 -0.04,-0.194l0,-2.052c0,-0.15 -0.021,-0.28 -0.063,-0.391c-0.042,-0.11 -0.098,-0.202 -0.169,-0.276c-0.072,-0.073 -0.154,-0.128 -0.249,-0.164c-0.095,-0.035 -0.195,-0.053 -0.3,-0.053c-0.14,0 -0.27,0.022 -0.391,0.067c-0.121,0.045 -0.227,0.113 -0.318,0.203c-0.09,0.091 -0.162,0.196 -0.215,0.314c-0.052,0.119 -0.079,0.27 -0.079,0.454l0,1.898c0,0.074 -0.013,0.139 -0.039,0.194c-0.026,0.055 -0.061,0.102 -0.105,0.14c-0.043,0.038 -0.093,0.066 -0.15,0.085c-0.056,0.018 -0.113,0.027 -0.171,0.027c-0.058,0 -0.115,-0.009 -0.17,-0.027c-0.055,-0.019 -0.105,-0.047 -0.148,-0.085c-0.043,-0.038 -0.078,-0.085 -0.105,-0.14c-0.026,-0.055 -0.039,-0.12 -0.039,-0.194l-0,-3.07Z" style="fill-rule:nonzero;"/><path d="M32.981,22.239c-0.045,0.116 -0.092,0.216 -0.142,0.298c-0.05,0.083 -0.107,0.152 -0.17,0.206c-0.063,0.054 -0.133,0.094 -0.211,0.12c-0.078,0.026 -0.167,0.039 -0.266,0.039c-0.1,0 -0.189,-0.013 -0.265,-0.039c-0.076,-0.026 -0.145,-0.066 -0.207,-0.12c-0.062,-0.054 -0.118,-0.123 -0.168,-0.206c-0.05,-0.082 -0.099,-0.182 -0.146,-0.298l-1.097,-2.735c-0.019,-0.044 -0.028,-0.094 -0.028,-0.15c0,-0.06 0.013,-0.115 0.04,-0.165c0.026,-0.05 0.061,-0.093 0.104,-0.129c0.044,-0.035 0.093,-0.062 0.148,-0.081c0.056,-0.018 0.112,-0.027 0.17,-0.027c0.087,-0 0.166,0.025 0.237,0.075c0.071,0.05 0.127,0.129 0.17,0.237l1.042,2.731l1.006,-2.727c0.039,-0.111 0.096,-0.191 0.17,-0.241c0.073,-0.05 0.155,-0.075 0.244,-0.075c0.056,-0 0.111,0.009 0.166,0.027c0.055,0.019 0.105,0.046 0.148,0.081c0.044,0.036 0.078,0.079 0.105,0.129c0.026,0.05 0.039,0.105 0.039,0.165c-0.002,0.024 -0.005,0.049 -0.008,0.075c-0.002,0.027 -0.009,0.053 -0.019,0.079l-1.062,2.731Z" style="fill-rule:nonzero;"/><path d="M38.408,20.799c-0,0.071 -0.023,0.133 -0.069,0.187c-0.047,0.054 -0.117,0.081 -0.212,0.081l-2.687,0c0.023,0.382 0.141,0.678 0.353,0.888c0.212,0.211 0.491,0.316 0.839,0.316c0.213,-0 0.414,-0.03 0.603,-0.091c0.19,-0.06 0.383,-0.141 0.581,-0.241c0.047,-0.023 0.092,-0.035 0.134,-0.035c0.071,-0 0.128,0.026 0.171,0.079c0.044,0.052 0.066,0.113 0.066,0.181c-0,0.029 -0.005,0.06 -0.014,0.093c-0.009,0.033 -0.025,0.064 -0.046,0.093c-0.084,0.108 -0.187,0.2 -0.309,0.276c-0.123,0.076 -0.255,0.138 -0.397,0.186c-0.142,0.047 -0.289,0.082 -0.44,0.104c-0.151,0.023 -0.298,0.034 -0.44,0.034c-0.287,-0 -0.554,-0.048 -0.801,-0.142c-0.248,-0.095 -0.463,-0.232 -0.646,-0.413c-0.183,-0.18 -0.326,-0.402 -0.43,-0.667c-0.104,-0.264 -0.156,-0.537 -0.156,-0.819c0,-0.239 0.049,-0.482 0.146,-0.73c0.098,-0.247 0.231,-0.463 0.401,-0.647c0.17,-0.184 0.373,-0.335 0.612,-0.452c0.238,-0.117 0.515,-0.176 0.83,-0.176c0.324,0 0.604,0.052 0.839,0.154c0.236,0.103 0.432,0.24 0.588,0.411c0.157,0.171 0.275,0.375 0.355,0.614c0.081,0.238 0.123,0.476 0.129,0.716Zm-0.821,-0.205c-0.011,-0.127 -0.041,-0.261 -0.091,-0.403c-0.05,-0.142 -0.12,-0.264 -0.211,-0.365c-0.091,-0.101 -0.202,-0.178 -0.332,-0.229c-0.13,-0.051 -0.279,-0.077 -0.448,-0.077c-0.152,0 -0.291,0.028 -0.416,0.083c-0.125,0.055 -0.233,0.135 -0.324,0.241c-0.091,0.105 -0.164,0.227 -0.219,0.367c-0.055,0.139 -0.088,0.267 -0.098,0.383l2.139,-0Z" style="fill-rule:nonzero;"/><path d="M39.284,19.386c-0,-0.071 0.014,-0.134 0.041,-0.19c0.028,-0.055 0.063,-0.1 0.107,-0.136c0.043,-0.035 0.093,-0.062 0.15,-0.081c0.056,-0.018 0.114,-0.027 0.171,-0.027c0.056,-0 0.11,0.008 0.162,0.025c0.053,0.018 0.1,0.043 0.142,0.075c0.042,0.033 0.077,0.075 0.105,0.127c0.028,0.051 0.043,0.111 0.045,0.179c0,0.003 0.001,0.02 0.002,0.052c0.002,0.031 0.002,0.067 0.002,0.108l0,0.16c0.061,-0.224 0.177,-0.409 0.348,-0.555c0.171,-0.146 0.4,-0.219 0.686,-0.219c0.066,0 0.125,0.012 0.176,0.034c0.051,0.022 0.094,0.051 0.128,0.085c0.034,0.034 0.06,0.073 0.077,0.118c0.017,0.045 0.026,0.091 0.026,0.138c-0,0.048 -0.009,0.094 -0.026,0.138c-0.017,0.045 -0.043,0.085 -0.079,0.121c-0.035,0.035 -0.08,0.064 -0.134,0.087c-0.054,0.022 -0.116,0.033 -0.187,0.033c-0.153,0 -0.292,0.023 -0.417,0.067c-0.125,0.045 -0.231,0.113 -0.319,0.204c-0.089,0.09 -0.157,0.195 -0.206,0.313c-0.048,0.119 -0.073,0.27 -0.073,0.454l0,1.768c0,0.074 -0.014,0.138 -0.041,0.192c-0.028,0.054 -0.063,0.099 -0.107,0.136c-0.043,0.037 -0.093,0.064 -0.15,0.083c-0.056,0.018 -0.114,0.027 -0.171,0.027c-0.058,0 -0.114,-0.009 -0.168,-0.027c-0.054,-0.019 -0.103,-0.046 -0.146,-0.081c-0.044,-0.036 -0.078,-0.081 -0.105,-0.136c-0.026,-0.055 -0.039,-0.12 -0.039,-0.194l-0,-3.078Z" style="fill-rule:nonzero;"/><path d="M42.646,18.952l0.075,-1.062c0.006,-0.058 0.022,-0.11 0.05,-0.156c0.027,-0.046 0.062,-0.085 0.104,-0.116c0.042,-0.032 0.088,-0.055 0.138,-0.071c0.05,-0.016 0.1,-0.024 0.15,-0.024c0.095,0 0.179,0.029 0.253,0.087c0.074,0.058 0.111,0.149 0.111,0.272l-0,1.07l0.603,-0c0.108,-0 0.19,0.033 0.245,0.1c0.055,0.068 0.083,0.141 0.083,0.219c-0,0.079 -0.027,0.152 -0.081,0.218c-0.054,0.065 -0.136,0.098 -0.247,0.098l-0.603,0l-0,1.642c-0,0.187 0.003,0.345 0.009,0.474c0.007,0.129 0.024,0.233 0.052,0.313c0.027,0.081 0.071,0.139 0.13,0.174c0.059,0.036 0.141,0.053 0.247,0.053c0.026,0 0.055,-0.001 0.086,-0.004c0.032,-0.002 0.064,-0.006 0.095,-0.009c0.032,-0.004 0.061,-0.008 0.089,-0.01c0.028,-0.003 0.049,-0.004 0.065,-0.004c0.1,-0 0.178,0.033 0.233,0.098c0.055,0.066 0.083,0.14 0.083,0.221c-0,0.085 -0.026,0.153 -0.077,0.206c-0.051,0.052 -0.119,0.094 -0.201,0.126c-0.083,0.032 -0.176,0.053 -0.279,0.065c-0.102,0.012 -0.206,0.018 -0.311,0.018c-0.185,-0 -0.348,-0.024 -0.49,-0.071c-0.142,-0.048 -0.262,-0.126 -0.359,-0.235c-0.097,-0.109 -0.172,-0.253 -0.223,-0.432c-0.051,-0.179 -0.077,-0.399 -0.077,-0.659l0,-1.966l-0.383,0c-0.11,0 -0.193,-0.033 -0.246,-0.098c-0.054,-0.066 -0.081,-0.139 -0.081,-0.218c-0,-0.078 0.027,-0.151 0.083,-0.219c0.055,-0.067 0.138,-0.1 0.248,-0.1l0.426,-0Z" style="fill-rule:nonzero;"/></g></g></svg>
